PathFileType	4	(X/Y/Z)	C:/Users/beibeiliu/ov580/test_trc/User3\sequence.35_training_dense_right.trc
DataRate	CameraRate	NumFrames	NumMarkers	Units	OrigDataRate	OrigDataStartFrame	OrigNumFrames
120	120	24	19	mm	120	234	267
Frame#	Time	ThumbCMC			ThumbMCP			ThumbIP			ThumbTip			IndexMCP			IndexPIP			IndexTip			MiddleMCP			MiddlePIP			MiddleTip			RingMCP			RingPIP			RingTip			PinkyMCP			PinkyPIP			PinkyTip			BackHand1			BackHand2			BackHand3	
		X0	Y0	Z0	X1	Y1	Z1	X2	Y2	Z2	X3	Y3	Z3	X4	Y4	Z4	X5	Y5	Z5	X6	Y6	Z6	X7	Y7	Z7	X8	Y8	Z8	X9	Y9	Z9	X10	Y10	Z10	X11	Y11	Z11	X12	Y12	Z12	X13	Y13	Z13	X14	Y14	Z14	X15	Y15	Z15	X16	Y16	Z16	X17	Y17	Z17	X18	Y18	Z18	
233	1.94167	192.605	-10.5291	-2.50305	188.399	-6.74701	-37.5037	187.374	-11.8668	-69.3186	180.246	-17.9823	-90.2112	222.172	-53.0902	-59.5516	210.607	-55.1864	-92.8101	189.776	-46.2584	-105.078	205.743	-64.5183	-64.9731	179.589	-51.8266	-82.1055	159.15	-31.4645	-51.8593	189.434	-78.1544	-55.7831	164.368	-66.5785	-67.6356	154.507	-45.5561	-40.4751	178.411	-90.6636	-40.5631	159.01	-76.862	-59.7214	148.631	-58.599	-43.2963	200.353	-75.6281	4.63741	193.129	-65.6105	28.8818	211.642	-42.4884	10.4475	
234	1.95	186.323	-7.73872	-5.58136	178.516	-6.66213	-40.4176	173.461	-5.62507	-71.0982	166.447	-13.9515	-91.0411	218.106	-55.3715	-64.9647	211.2	-60.3282	-94.0089	191.581	-54.0515	-115.747	198.982	-66.7946	-65.9138	173.53	-57.4438	-85.9399	148.312	-37.7926	-58.5069	185.677	-77.6528	-56.7138	157.879	-70.1092	-68.4977	147.087	-45.4769	-41.9683	173.365	-92.5124	-42.0464	156.279	-79.6539	-57.7219	144.679	-58.6648	-42.0982	202.839	-73.0306	-0.276501	195.13	-62.2271	26.7899	209.679	-38.7076	4.09518	
235	1.95833	178.186	-7.69855	-11.3578	163.954	-4.20221	-38.6732	155.666	-1.723	-70.0158	146.058	-4.23648	-89.7442	211.556	-47.6067	-67.2786	210.902	-57.2402	-96.8946	197.766	-67.136	-115.067	193.315	-67.1763	-68.7975	162.721	-65.4155	-86.7368	136.97	-51.2016	-66.6843	181.056	-80.3321	-53.4651	151.995	-78.9172	-65.0017	136.688	-58.0838	-42.6246	174.024	-90.9502	-39.338	145.331	-84.7914	-50.0476	136.892	-66.3526	-34.2037	204.024	-65.7017	-2.7705	197.543	-58.0367	24.82	207.327	-33.5727	-0.918106	
236	1.96667	165.876	-9.36654	-10.3095	148.144	-9.28176	-34.1527	137.501	-10.6816	-64.6227	126.773	-12.4678	-85.8605	201.7	-47.7636	-66.5891	203.275	-54.8158	-95.2197	197.688	-67.1856	-120.265	187.654	-70.2371	-67.7016	160.768	-75.4405	-86.1267	125.853	-68.41	-64.2935	177.049	-85.7431	-53.9932	148.973	-89.5863	-60.993	130.569	-70.9409	-41.1016	172.816	-95.7982	-39.8988	147.187	-91.9786	-45.2978	134.687	-70.2569	-27.1549	201.986	-67.9132	-3.8901	196.641	-53.9693	26.2666	199.086	-30.9819	-4.18509	
237	1.975	156.297	-14.2287	-9.43022	137.248	-15.8764	-34.4001	125.984	-18.5314	-60.7454	114.526	-22.5399	-80.0088	194.534	-49.1935	-64.8951	197.311	-60.5287	-89.5992	197.113	-75.5957	-116.678	184.023	-76.0657	-68.424	155.868	-87.1275	-82.6955	121.824	-83.0761	-64.1634	176.513	-90.868	-53.5944	149.658	-96.5926	-59.1531	128.076	-84.6382	-36.9248	174.734	-101.618	-35.042	145.642	-103.639	-38.7278	135.644	-81.8853	-22.7801	202.709	-63.3251	-5.92848	197.462	-52.6711	23.6241	193.848	-29.3934	-2.36793	
238	1.98333	154.036	-21.2884	-5.24524	137.703	-27.1342	-33.5994	123.992	-24.9461	-61.0708	113.756	-31.0911	-79.7716	193.528	-58.5412	-64.1529	195.206	-65.4998	-90.5931	192.977	-82.3765	-112.855	184.375	-82.974	-64.7584	154.38	-97.4193	-78.7224	123.853	-91.7729	-64.5936	178.103	-96.6343	-50.4313	149.855	-106.257	-55.9118	127.892	-87.9742	-32.0754	174.684	-110.712	-31.6856	149.656	-110.135	-39.1624	133.806	-88.7187	-23.0071	201.328	-68.0046	-2.06421	194.197	-61.0756	28.1995	191.878	-35.0833	-3.15035	
239	1.99167	159.995	-28.9437	-10.9112	146.608	-34.7334	-34.7686	135.288	-35.3064	-63.1657	127.848	-45.3751	-87.5121	197.748	-68.3876	-63.3602	196.956	-83.2543	-87.4682	186.922	-98.4347	-110.292	185.999	-94.4035	-61.3342	159.053	-105.032	-77.0784	124.52	-89.584	-62.6799	176.153	-109.149	-48.6633	146.211	-110.715	-53.6202	129.729	-89.8394	-31.3427	173.387	-119.17	-26.9989	148.984	-116.335	-39.0123	133.896	-93.7396	-20.1026	198.865	-81.8953	-1.82574	193.061	-69.9335	27.2664	194	-46.9519	2.17297	
240	2	170.31	-41.6218	-7.4434	158.707	-42.0203	-40.4257	152.061	-48.1918	-65.5691	143.945	-58.143	-87.5217	202.417	-90.8397	-59.7166	194.021	-104.288	-86.5572	176.4	-108.109	-104.405	186.656	-108.749	-58.7267	160.812	-108.491	-75.9335	130.327	-85.0133	-58.2088	175.266	-117.327	-44.8974	145.857	-111.838	-54.1575	134.698	-90.3689	-36.0137	167.219	-130.669	-29.0949	145.858	-121.123	-40.8	137.07	-97.7484	-24.3173	196.395	-98.223	8.33523	189.956	-84.8055	37.3232	200.945	-63.1178	5.27769	
241	2.00833	180.362	-52.1919	-7.11723	170.758	-55.2526	-41.6354	166.148	-65.5042	-67.4215	157.8	-82.3398	-85.7643	201.519	-105.35	-56.0771	189.548	-114.418	-81.9516	165.798	-108.146	-99.4136	185.633	-119.116	-55.5215	160.158	-111.736	-74.7371	137.062	-90.156	-53.843	171.304	-127.288	-43.1015	143.601	-114.826	-52.9716	138.11	-93.1214	-31.0413	161.432	-136.591	-25.7841	141.227	-124.542	-40.858	136.82	-97.7994	-22.0679	192.91	-111.648	11.9594	184.838	-94.8675	36.9718	203.258	-79.6587	8.34837	
242	2.01667	185.353	-63.061	-6.11404	176.31	-66.8298	-37.1021	169.153	-74.609	-66.7767	157.034	-90.965	-78.6243	197.657	-116.48	-53.4313	179.464	-121.257	-80.6528	154.579	-108.396	-92.8968	176.597	-129.414	-51.589	152.924	-112.803	-71.7775	138.033	-89.0582	-49.6168	161.68	-134.381	-38.5828	138.876	-116.578	-52.7857	138.768	-92.4654	-26.1847	149.963	-141.856	-22.6353	131.351	-124.399	-40.0966	134.015	-97.8336	-22.7146	183.319	-122.481	10.7928	177.803	-105.923	40.7028	199.894	-90.5602	14.3468	
243	2.025	183.642	-66.0791	-1.44995	173.381	-68.7738	-35.3329	162.189	-80.6375	-62.5577	145.898	-94.7796	-76.6057	181.383	-126.799	-56.182	165.235	-122.823	-80.3332	142.914	-104.377	-89.3041	163.462	-133.746	-48.3533	139.923	-117.509	-67.5223	131.562	-86.5215	-43.1405	148.784	-136.36	-38.8279	129.071	-117.177	-50.0827	131.254	-93.3444	-27.8769	138.354	-140.845	-21.923	122.154	-123.271	-37.5095	125.976	-101.967	-21.3377	170.998	-132.581	13.8307	170.855	-112.634	40.516	195.546	-100.709	13.5918	
244	2.03333	175.529	-67.2865	1.5807	162.318	-69.176	-32.0491	147.847	-77.0699	-60.7303	128.873	-89.9253	-70.7158	164.976	-124.947	-53.4536	145.284	-119.418	-78.4221	123.796	-95.4221	-82.2658	149.592	-130.252	-48.9935	123.149	-112.308	-61.94	119.494	-81.7145	-36.0863	132.383	-136.766	-35.6319	110.98	-117.242	-43.4938	120.96	-89.8651	-20.3578	122.063	-140.569	-17.6465	107.659	-120.598	-32.1473	115.665	-96.2456	-12.1511	164.556	-131.088	16.0279	163.805	-114.717	42.5575	186.519	-104.979	10.0239	
245	2.04167	166.987	-63.6628	4.46691	151.823	-61.6992	-28.4455	136.749	-65.3652	-51.9125	114.653	-78.566	-61.9894	151.913	-116.297	-51.2641	132.467	-109.779	-75.6773	106.826	-86.0999	-74.2837	131.162	-124.718	-47.6127	108.539	-104.525	-58.3409	104.015	-74.6299	-34.8262	117.879	-131.336	-31.3059	98.4668	-107.778	-39.9921	104.603	-86.7173	-17.4988	106.521	-134.595	-16.5756	94.2936	-114.384	-26.014	104.272	-90.8242	-10.0803	152.086	-128.978	13.1619	158.044	-112.652	44.049	176.695	-99.2109	12.4735	
246	2.05	160.464	-55.9713	4.82702	144.383	-50.7832	-25.4909	127.117	-53.6458	-47.5691	104.862	-66.7701	-58.2565	139.259	-104.437	-50.9268	115.926	-94.8473	-74.435	96.2624	-73.9816	-72.7852	118.521	-113.136	-47.2866	94.3049	-92.2326	-54.2945	95.7272	-61.3731	-28.3249	111.058	-118.583	-32.8537	85.5049	-97.9572	-36.0215	94.7786	-76.5788	-12.773	99.2861	-124.471	-13.2387	82.8089	-107.579	-23.4996	94.2346	-79.7004	-5.65165	142.515	-123.494	15.8288	149.922	-108.899	44.7936	169.172	-92.1149	13.0152	
247	2.05833	155.302	-45.4049	7.35549	140.56	-37.322	-22.8315	122.943	-37.2906	-46.8238	100.822	-46.0875	-59.9902	131.65	-88.1259	-53.0952	106.222	-76.629	-72.5089	87.7026	-51.1909	-69.152	111.898	-96.6729	-47.6646	87.4941	-74.3639	-54.7364	87.9765	-47.4379	-28.0135	96.9727	-105.791	-34.3725	76.7491	-84.4473	-34.2118	88.2669	-62.3605	-11.2625	87.3238	-113.556	-14.6188	73.9855	-92.0149	-23.9417	82.5513	-70.1067	-3.95742	133.793	-110.186	16.9431	143.408	-98.7448	41.2367	161.564	-85.091	10.8249	
248	2.06667	148.547	-34.3873	10.2925	137.259	-22.3806	-17.7387	119.723	-20.9312	-45.5622	97.1699	-25.6319	-59.304	122.483	-70.3368	-54.4934	99.1444	-59.3086	-70.8189	80.7989	-34.6268	-66.717	100.329	-80.357	-49.6036	81.115	-55.3533	-55.5874	81.6814	-31.6071	-25.4006	92.2924	-87.4405	-34.5111	72.0879	-66.65	-39.2992	83.2468	-46.2932	-11.2317	81.3954	-97.3559	-15.8122	65.8526	-76.3727	-24.5241	76.325	-53.8107	-2.67065	126.815	-98.1737	12.8633	134.053	-92.6469	42.4802	151.163	-73.5509	11.1302	
249	2.075	143.583	-21.9864	12.8236	132.328	-7.74365	-19.3641	117.46	-2.51613	-42.0845	94.1456	-5.98526	-59.5383	115.113	-50.8616	-57.2753	94.8746	-34.2575	-73.3596	76.4112	-12.3144	-64.9066	94.9034	-60.4125	-53.3418	76.1638	-35.5157	-57.9171	76.1196	-14.5595	-21.6289	84.6753	-67.596	-40.8853	65.281	-45.5532	-38.4113	78.2615	-29.6453	-11.0792	77.7842	-77.5374	-22.9354	57.4929	-59.6385	-25.8613	72.5885	-38.7106	-5.36034	122.774	-81.593	6.41724	129.806	-77.2389	38.5832	145.89	-61.6204	10.877	
250	2.08333	139.983	-4.36521	8.58952	130.823	13.6393	-15.2548	116.682	20.8063	-42.9275	95.6002	16.6559	-57.0597	113.558	-25.689	-61.3832	91.7218	-12.7408	-73.4674	76.0426	12.3128	-63.3684	94.8444	-37.9299	-54.2537	70.5743	-13.9885	-56.9337	73.1921	2.94258	-21.6064	81.4622	-49.5107	-39.7798	60.8412	-26.5267	-39.944	75.0279	-12.7817	-9.31222	72.5226	-58.6285	-26.4576	55.1675	-35.8639	-29.8082	67.5766	-22.0899	-5.87557	118.943	-64.712	3.55898	124.955	-61.784	30.6018	143.037	-41.545	3.8738	
251	2.09167	139.543	12.8243	10.8791	129.274	28.8313	-11.694	117.456	39.7712	-37.1657	97.8299	39.8515	-58.749	116.082	-4.05453	-58.8069	93.1058	17.38	-74.8979	73.6968	37.6026	-55.9176	95.8732	-14.028	-57.6314	70.9874	11.0096	-57.3135	73.7792	24.3335	-21.7283	80.4131	-24.5341	-45.633	58.3434	-3.47036	-41.0983	74.3078	6.26859	-11.1943	68.1398	-37.7323	-31.4368	54.8394	-12.5957	-31.7671	67.1535	-0.792661	-5.88871	114.623	-47.8592	-3.90051	117.146	-48.609	27.0044	138.603	-25.0611	2.74011	
252	2.1	136.631	27.6475	12.276	130.328	46.1028	-14.3555	118.866	58.2487	-37.7183	101.523	60.5057	-53.1652	111.961	11.5716	-59.3603	91.8055	36.2669	-74.2986	78.1959	60.4103	-54.8207	92.9961	6.74171	-59.0843	70.7337	30.4181	-58.8448	77.157	39.8541	-17.6216	78.4982	-3.05143	-47.3185	58.3003	19.5207	-42.1094	74.2173	24.9614	-10.463	69.3584	-13.7617	-35.7674	51.6762	8.17327	-33.2494	63.4996	15.533	-5.34608	108.65	-32.9489	-5.00153	112.792	-34.7767	25.3474	134.777	-11.9913	3.00308	
253	2.10833	135.716	41.0629	10.7326	128.628	58.9214	-8.90595	121.501	74.639	-39.6713	107.015	79.8754	-58.1007	117.895	31.2675	-61.6373	98.111	54.072	-76.561	84.5175	75.8489	-60.2038	97.5728	25.7647	-60.8476	73.6003	51.173	-57.5465	80.875	55.7879	-18.3028	78.7382	14.2996	-51.3194	63.2185	37.8061	-45.5834	76.2364	41.2909	-13.1956	67.9256	1.90553	-38.4644	55.1822	25.3055	-39.2615	64.5959	31.9703	-8.89097	106.742	-15.2735	-8.85138	114.923	-19.2256	21.656	134.784	1.90013	2.92025	
254	2.11667	133.883	51.9772	13.4165	127.934	69.6677	-12.02	124.035	82.6427	-38.5625	110.29	85.3847	-60.2921	121.391	41.8213	-65.497	105.324	61.6985	-79.6419	89.7931	90.2483	-63.7362	105.196	37.2083	-63.952	82.7194	63.7625	-62.9493	86.8121	63.4534	-21.9032	86.8376	27.1449	-56.5352	69.5269	52.0546	-50.6802	81.8931	51.1922	-17.9794	73.7594	12.2835	-46.1194	64.9155	40.1559	-45.3876	70.8274	41.5742	-18.1476	109.877	-5.57599	-9.16468	116.009	-6.2537	17.0072	138.485	16.3076	3.51018	
255	2.125	135.921	63.1684	12.088	132.079	78.8639	-18.7648	129.867	92.9248	-45.2373	119.078	94.6236	-69.832	135.458	48.8472	-64.8982	119.168	69.3427	-87.5341	98.2754	94.9543	-77.1585	115.056	44.2655	-70.7779	93.2625	68.4281	-71.4253	92.8778	70.7039	-33.8341	99.36	32.1694	-61.3016	78.1293	57.5613	-58.0645	87.2531	57.7921	-28.4692	85.4791	17.5952	-54.2873	72.5214	42.8913	-56.8108	76.6423	48.4698	-29.2382	117.373	5.08588	-16.0506	118.092	2.01187	17.5673	142.964	28.0239	0.59278	
256	2.13333	136.228	68.2879	2.65731	131.487	82.9856	-24.6894	131.865	93.4662	-52.3719	124.304	93.0962	-73.6376	146.491	52.301	-69.9658	135.86	68.7483	-93.9606	112.002	91.3855	-92.3943	129.774	43.2717	-74.6062	105.967	67.2765	-81.5869	102.094	71.8633	-41.4805	115.705	37.8993	-72.2989	91.0241	53.3764	-71.3179	94.3497	59.0646	-38.6225	102.144	19.8276	-65.3838	88.5399	43.2223	-68.2208	83.6865	49.0659	-42.2408	130.704	11.3137	-18.2993	126.479	8.11765	10.6067	147.52	31.3478	1.07913	
